# xmcd
#
# Track frame offsets: 
#        150
#        11261
#        25865
#        43286
#        55444
#        71009
#        82388
#        96008
#        110745
#        124771
#        142930
#        159536
#        172714
#        186343
#        198650
#        213666
#        223866
#
# Disc length: 3206 seconds
#
# Revision: 0
# Processed by: cddbd v1.5.2PL0 Copyright (c) Steve Scherf et al.
# Submitted via: ExactAudioCopy v0.99pb4
#
DISCID=010c8411
DTITLE=Monroe's Revenge - Monroe's Revenge
DYEAR=2008
DGENRE=Bluegrass
TTITLE0=Roust-A-Bout
TTITLE1=Good Imitation Of The Blues
TTITLE2=Washington County
TTITLE3=I'm Working On A Building
TTITLE4=Somewhere On The Road Tonight
TTITLE5=Just Because
TTITLE6=Ninety Nine Ways
TTITLE7=Lonesome Road
TTITLE8=Muddy Water
TTITLE9=Shady Grove/Camp Chase
TTITLE10=Hemlock And Primroses
TTITLE11=Goin' To The Barn Dance Tonight
TTITLE12=Denver Belle
TTITLE13=He Will Set Your Fields On Fire
TTITLE14=One More Dollar
TTITLE15=Pig In A Pen
TTITLE16=Maiden's Prayer
EXTD=
EXTT0=
EXTT1=
EXTT2=
EXTT3=
EXTT4=
EXTT5=
EXTT6=
EXTT7=
EXTT8=
EXTT9=
EXTT10=
EXTT11=
EXTT12=
EXTT13=
EXTT14=
EXTT15=
EXTT16=
PLAYORDER=
